<svg xmlns="http://www.w3.org/2000/svg" viewBox="0 0 860 520" width="860" height="520" font-family="system-ui, -apple-system, 'Segoe UI', sans-serif" font-size="12"><defs><style>@import url('https://fonts.googleapis.com/css2?family=Gurajada&amp;display=swap');.title{font-family:'Gurajada',Georgia,serif;font-weight:400;}.label{font-family:system-ui,-apple-system,'Segoe UI',sans-serif;}</style><filter id="hardShadow" x="-10%" y="-10%" width="130%" height="130%"><feOffset dx="5" dy="5"/><feFlood flood-color="#18181b"/><feComposite in2="SourceAlpha" operator="in"/><feComposite in="SourceGraphic" operator="over"/></filter><filter id="softShadow" x="-10%" y="-10%" width="130%" height="130%"><feOffset dx="3" dy="3"/><feFlood flood-color="#18181b"/><feComposite in2="SourceAlpha" operator="in"/><feComposite in="SourceGraphic" operator="over"/></filter><filter id="dotShadow" x="-50%" y="-50%" width="200%" height="200%"><feOffset dx="1.5" dy="1.5"/><feFlood flood-color="#18181b"/><feComposite in2="SourceAlpha" operator="in"/><feComposite in="SourceGraphic" operator="over"/></filter></defs><rect x="0" y="0" width="860" height="520" rx="0" ry="0" fill="#fafaf9" stroke="none" stroke-width="0"/><rect x="20" y="20" width="820" height="480" rx="20" ry="20" fill="#ffffff" stroke="#18181b" stroke-width="2" filter="url(#hardShadow)"/><text class="title" x="430" y="60" text-anchor="middle" font-size="34" font-weight="400" fill="#18181b">Test–retest reliability</text><text class="label" x="430" y="86" text-anchor="middle" font-size="13" font-weight="400" fill="#78716c">Mean absolute deviation across three runs · lower is better</text><rect x="96" y="327.5" width="720" height="72.5" rx="0" ry="0" fill="#dcfce7" stroke="none" stroke-width="0" fill-opacity="0.45"/><rect x="96" y="182.5" width="720" height="145" rx="0" ry="0" fill="#fef3c7" stroke="none" stroke-width="0" fill-opacity="0.4"/><rect x="96" y="110" width="720" height="72.5" rx="0" ry="0" fill="#fee2e2" stroke="none" stroke-width="0" fill-opacity="0.35"/><text class="label" x="808" y="321.5" text-anchor="end" font-size="10" font-weight="600" fill="#166534">≤ 0.5  acceptable</text><text class="label" x="808" y="176.5" text-anchor="end" font-size="10" font-weight="600" fill="#92400e">0.5–1.5  borderline</text><text class="label" x="808" y="124" text-anchor="end" font-size="10" font-weight="600" fill="#991b1b">> 1.5  poor</text><line x1="96" y1="400" x2="816" y2="400" stroke="#e7e5e4" stroke-width="1"/><text class="label" x="86" y="404" text-anchor="end" font-size="11" font-weight="400" fill="#78716c">0.0</text><line x1="96" y1="327.5" x2="816" y2="327.5" stroke="#e7e5e4" stroke-width="1" stroke-dasharray="2 4"/><text class="label" x="86" y="331.5" text-anchor="end" font-size="11" font-weight="400" fill="#78716c">0.5</text><line x1="96" y1="255" x2="816" y2="255" stroke="#e7e5e4" stroke-width="1" stroke-dasharray="2 4"/><text class="label" x="86" y="259" text-anchor="end" font-size="11" font-weight="400" fill="#78716c">1.0</text><line x1="96" y1="182.5" x2="816" y2="182.5" stroke="#e7e5e4" stroke-width="1" stroke-dasharray="2 4"/><text class="label" x="86" y="186.5" text-anchor="end" font-size="11" font-weight="400" fill="#78716c">1.5</text><line x1="96" y1="110" x2="816" y2="110" stroke="#e7e5e4" stroke-width="1" stroke-dasharray="2 4"/><text class="label" x="86" y="114" text-anchor="end" font-size="11" font-weight="400" fill="#78716c">2.0</text><line x1="96" y1="110" x2="96" y2="400" stroke="#57534e" stroke-width="1.5"/><line x1="96" y1="400" x2="816" y2="400" stroke="#57534e" stroke-width="1.5"/><text class="label" x="38" y="255" text-anchor="middle" font-size="12" font-weight="600" fill="#57534e" transform="rotate(-90, 38, 255)">MAD  (0–10 scale)</text><line x1="131" y1="399" x2="175" y2="399" stroke="#0f766e" stroke-width="3" stroke-linecap="round"/><line x1="153" y1="303.28499999999997" x2="153" y2="399" stroke="#18181b" stroke-width="1.5" stroke-linecap="round"/><circle cx="153" cy="303.28499999999997" r="3.5" fill="#ffffff" stroke="#18181b" stroke-width="1.5"/><text class="label" x="153" y="388" text-anchor="middle" font-size="11" font-weight="700" fill="#18181b">0.00</text><line x1="197" y1="399" x2="241" y2="399" stroke="#57534e" stroke-width="3" stroke-linecap="round"/><line x1="219" y1="335.62" x2="219" y2="399" stroke="#18181b" stroke-width="1.5" stroke-linecap="round"/><circle cx="219" cy="335.62" r="3.5" fill="#ffffff" stroke="#18181b" stroke-width="1.5"/><text class="label" x="219" y="388" text-anchor="middle" font-size="11" font-weight="700" fill="#18181b">0.00</text><text class="label" x="186" y="426" text-anchor="middle" font-size="10" font-weight="700" fill="#78716c" letter-spacing="1.5">DT</text><text class="label" x="186" y="446" text-anchor="middle" font-size="13" font-weight="600" fill="#18181b">flexibility</text><rect x="311" y="367.81" width="44" height="32.19" rx="8" ry="8" fill="#0f766e" stroke="#18181b" stroke-width="2" filter="url(#softShadow)"/><line x1="333" y1="271.095" x2="333" y2="366.81" stroke="#18181b" stroke-width="1.5" stroke-linecap="round"/><circle cx="333" cy="271.095" r="3.5" fill="#ffffff" stroke="#18181b" stroke-width="1.5"/><text class="label" x="333" y="355.81" text-anchor="middle" font-size="11" font-weight="700" fill="#18181b">0.22</text><rect x="377" y="335.62" width="44" height="64.38" rx="8" ry="8" fill="#57534e" stroke="#18181b" stroke-width="2" filter="url(#softShadow)"/><line x1="399" y1="271.095" x2="399" y2="334.62" stroke="#18181b" stroke-width="1.5" stroke-linecap="round"/><circle cx="399" cy="271.095" r="3.5" fill="#ffffff" stroke="#18181b" stroke-width="1.5"/><text class="label" x="399" y="323.62" text-anchor="middle" font-size="11" font-weight="700" fill="#18181b">0.44</text><text class="label" x="366" y="426" text-anchor="middle" font-size="10" font-weight="700" fill="#78716c" letter-spacing="1.5">DT</text><text class="label" x="366" y="446" text-anchor="middle" font-size="13" font-weight="600" fill="#18181b">originality</text><rect x="491" y="335.62" width="44" height="64.38" rx="8" ry="8" fill="#0f766e" stroke="#18181b" stroke-width="2" filter="url(#softShadow)"/><line x1="513" y1="206.715" x2="513" y2="334.62" stroke="#18181b" stroke-width="1.5" stroke-linecap="round"/><circle cx="513" cy="206.715" r="3.5" fill="#ffffff" stroke="#18181b" stroke-width="1.5"/><text class="label" x="513" y="323.62" text-anchor="middle" font-size="11" font-weight="700" fill="#18181b">0.44</text><rect x="557" y="335.62" width="44" height="64.38" rx="8" ry="8" fill="#57534e" stroke="#18181b" stroke-width="2" filter="url(#softShadow)"/><line x1="579" y1="303.28499999999997" x2="579" y2="334.62" stroke="#18181b" stroke-width="1.5" stroke-linecap="round"/><circle cx="579" cy="303.28499999999997" r="3.5" fill="#ffffff" stroke="#18181b" stroke-width="1.5"/><text class="label" x="579" y="323.62" text-anchor="middle" font-size="11" font-weight="700" fill="#18181b">0.44</text><text class="label" x="546" y="426" text-anchor="middle" font-size="10" font-weight="700" fill="#78716c" letter-spacing="1.5">DT</text><text class="label" x="546" y="446" text-anchor="middle" font-size="13" font-weight="600" fill="#18181b">elaboration</text><rect x="671" y="367.81" width="44" height="32.19" rx="8" ry="8" fill="#0f766e" stroke="#18181b" stroke-width="2" filter="url(#softShadow)"/><line x1="693" y1="238.905" x2="693" y2="366.81" stroke="#18181b" stroke-width="1.5" stroke-linecap="round"/><circle cx="693" cy="238.905" r="3.5" fill="#ffffff" stroke="#18181b" stroke-width="1.5"/><text class="label" x="693" y="355.81" text-anchor="middle" font-size="11" font-weight="700" fill="#18181b">0.22</text><rect x="737" y="367.81" width="44" height="32.19" rx="8" ry="8" fill="#57534e" stroke="#18181b" stroke-width="2" filter="url(#softShadow)"/><line x1="759" y1="335.62" x2="759" y2="366.81" stroke="#18181b" stroke-width="1.5" stroke-linecap="round"/><circle cx="759" cy="335.62" r="3.5" fill="#ffffff" stroke="#18181b" stroke-width="1.5"/><text class="label" x="759" y="355.81" text-anchor="middle" font-size="11" font-weight="700" fill="#18181b">0.22</text><text class="label" x="726" y="426" text-anchor="middle" font-size="10" font-weight="700" fill="#78716c" letter-spacing="1.5">REF</text><text class="label" x="726" y="446" text-anchor="middle" font-size="13" font-weight="600" fill="#18181b">depth</text><rect x="230" y="466" width="20" height="20" rx="10" ry="10" fill="#0f766e" stroke="#18181b" stroke-width="1.5"/><text class="label" x="258" y="481" text-anchor="start" font-size="12" font-weight="600" fill="#18181b">P1  rubric-referenced</text><rect x="440" y="466" width="20" height="20" rx="10" ry="10" fill="#57534e" stroke="#18181b" stroke-width="1.5"/><text class="label" x="468" y="481" text-anchor="start" font-size="12" font-weight="600" fill="#18181b">P2  naive prompt</text><line x1="656" y1="468" x2="656" y2="482" stroke="#18181b" stroke-width="1.5" stroke-linecap="round"/><circle cx="656" cy="468" r="3.5" fill="#ffffff" stroke="#18181b" stroke-width="1.5"/><text class="label" x="668" y="481" text-anchor="start" font-size="12" font-weight="600" fill="#18181b">p95 MAD</text><text class="label" x="96" y="476" text-anchor="start" font-size="11" font-weight="400" fill="#78716c">n = 12 submissions per bar · 3 runs each</text></svg>